<?xml version="1.0" standalone="no"?>
<!DOCTYPE svg PUBLIC "-//W3C//DTD SVG 1.1//EN">
<svg xmlns="http://www.w3.org/2000/svg">
    <metadata>Generated by Fontastic.me</metadata>
    <defs>
        <font id="icon-wis" horiz-adv-x="512">
            <font-face font-family="icon-wis" units-per-em="512" ascent="480" descent="-32"/>
            <missing-glyph horiz-adv-x="512"/>

            <glyph glyph-name="user" unicode="&#98;"
                   d="M256 256c71 0 128 57 128 128 0 71-57 128-128 128-71 0-128-57-128-128 0-71 57-128 128-128z m90-32l-17 0c-22-10-47-16-73-16-26 0-51 6-73 16l-17 0c-74 0-134-60-134-134l0-42c0-27 22-48 48-48l352 0c27 0 48 21 48 48l0 42c0 74-60 134-134 134z"/>
            <glyph glyph-name="globe" unicode="&#99;"
                   d="M345 352c-15 89-49 152-89 152-40 0-74-63-88-152z m-185-96c0-22 1-44 3-64l186 0c2 20 3 42 3 64 0 22-1 43-3 64l-186 0c-2-21-3-42-3-64z m325 96c-29 68-87 120-158 142 24-34 41-85 50-142z m-300 142c-71-22-129-74-158-142l108 0c9 57 26 108 50 142z m310-174l-114 0c2-21 3-43 3-64 0-22-1-43-3-64l114 0c6 20 9 42 9 64 0 22-3 43-9 64z m-367-64c0 21 1 43 3 64l-114 0c-6-21-9-42-9-64 0-22 3-44 9-64l114 0c-2 21-3 42-3 64z m40-96c14-89 48-152 88-152 40 0 74 63 89 152z m159-142c71 22 129 74 158 142l-108 0c-9-57-26-108-50-142z m-300 142c29-68 87-120 158-142-24 34-41 85-50 142z"/>
            <glyph glyph-name="facebook" unicode="&#97;"
                   d="M375 224l14 93-89 0 0 60c0 25 13 50 53 50l40 0 0 79c0 0-37 6-72 6-73 0-121-44-121-125l0-70-81 0 0-93 81 0 0-224 100 0 0 224z"/>
            <glyph glyph-name="building" unicode="&#100;"
                   d="M468 32l-20 0 0 456c0 13-11 24-24 24l-336 0c-13 0-24-11-24-24l0-456-20 0c-7 0-12-5-12-12l0-20 448 0 0 20c0 7-5 12-12 12z m-308 404c0 7 5 12 12 12l40 0c7 0 12-5 12-12l0-40c0-7-5-12-12-12l-40 0c-7 0-12 5-12 12z m0-96c0 7 5 12 12 12l40 0c7 0 12-5 12-12l0-40c0-7-5-12-12-12l-40 0c-7 0-12 5-12 12z m52-148l-40 0c-7 0-12 5-12 12l0 40c0 7 5 12 12 12l40 0c7 0 12-5 12-12l0-40c0-7-5-12-12-12z m76-160l-64 0 0 84c0 7 5 12 12 12l40 0c7 0 12-5 12-12z m64 172c0-7-5-12-12-12l-40 0c-7 0-12 5-12 12l0 40c0 7 5 12 12 12l40 0c7 0 12-5 12-12z m0 96c0-7-5-12-12-12l-40 0c-7 0-12 5-12 12l0 40c0 7 5 12 12 12l40 0c7 0 12-5 12-12z m0 96c0-7-5-12-12-12l-40 0c-7 0-12 5-12 12l0 40c0 7 5 12 12 12l40 0c7 0 12-5 12-12z"/>
            <glyph glyph-name="random" unicode="&#101;"
                   d="M505 112l-79-73c-15-15-42-4-42 17l0 40-31 0c-3 0-6 1-9 4l-90 97 39 41 79-86 12 0 0 48c0 22 27 32 42 17l79-71c9-9 9-25 0-34z m-493 248l92 0 80-86 38 41-90 97c-2 3-6 4-9 4l-111 0c-7 0-12-5-12-12l0-32c0-7 5-12 12-12z m493 42l-79 71c-15 15-42 4-42-17l0-40-31 0c-3 0-6-1-9-4l-240-260-92 0c-7 0-12-5-12-12l0-32c0-7 5-12 12-12l111 0c3 0 7 1 9 4l240 260 12 0 0-48c0-21 27-32 42-17l79 73c9 9 9 25 0 34z"/>
            <glyph glyph-name="plus" unicode="&#102;"
                   d="M432 288l-144 0 0 144c0 9-7 16-16 16l-32 0c-9 0-16-7-16-16l0-144-144 0c-9 0-16-7-16-16l0-32c0-9 7-16 16-16l144 0 0-144c0-9 7-16 16-16l32 0c9 0 16 7 16 16l0 144 144 0c9 0 16 7 16 16l0 32c0 9-7 16-16 16z"/>
            <glyph glyph-name="minus" unicode="&#103;"
                   d="M432 288l-352 0c-9 0-16-7-16-16l0-32c0-9 7-16 16-16l352 0c9 0 16 7 16 16l0 32c0 9-7 16-16 16z"/>
            <glyph glyph-name="location" unicode="&#104;"
                   d="M256 344c-49 0-88-39-88-88 0-49 39-88 88-88 49 0 88 39 88 88 0 49-39 88-88 88z m0-128c-22 0-40 18-40 40 0 22 18 40 40 40 22 0 40-18 40-40 0-22-18-40-40-40z m240 64l-50 0c-11 87-79 155-166 166l0 50c0 9-7 16-16 16l-16 0c-9 0-16-7-16-16l0-50c-87-11-155-79-166-166l-50 0c-9 0-16-7-16-16l0-16c0-9 7-16 16-16l50 0c11-87 79-155 166-166l0-50c0-9 7-16 16-16l16 0c9 0 16 7 16 16l0 50c87 11 155 79 166 166l50 0c9 0 16 7 16 16l0 16c0 9-7 16-16 16z m-240-168c-79 0-144 65-144 144 0 79 65 144 144 144 79 0 144-65 144-144 0-79-65-144-144-144z"/>
            <glyph glyph-name="chevron-up" unicode="&#105;"
                   d="M273 381l194-194c10-9 10-24 0-34l-22-22c-10-10-25-10-34-1l-155 155-155-155c-9-9-24-9-34 1l-22 22c-10 10-10 25 0 34l194 194c9 10 25 10 34 0z"/>
            <glyph glyph-name="chevron-down" unicode="&#106;"
                   d="M239 131l-194 194c-10 9-10 24 0 34l22 22c10 10 25 10 34 1l155-155 155 155c9 9 24 9 34-1l22-22c10-10 10-25 0-34l-194-194c-9-10-25-10-34 0z"/>
            <glyph glyph-name="search" unicode="&#107;"
                   d="M505 69l-100 100c-4 4-10 7-17 7l-16 0c28 35 44 80 44 128 0 115-93 208-208 208-115 0-208-93-208-208 0-115 93-208 208-208 48 0 93 16 128 44l0-16c0-7 3-13 7-17l100-100c9-9 24-9 34 0l28 28c9 10 9 25 0 34z m-297 107c-71 0-128 57-128 128 0 71 57 128 128 128 71 0 128-57 128-128 0-71-57-128-128-128z"/>
            <glyph glyph-name="ellipsis-v" unicode="&#108;"
                   d="M256 328c40 0 72-32 72-72 0-40-32-72-72-72-40 0-72 32-72 72 0 40 32 72 72 72z m-72 104c0-40 32-72 72-72 40 0 72 32 72 72 0 40-32 72-72 72-40 0-72-32-72-72z m0-352c0-40 32-72 72-72 40 0 72 32 72 72 0 40-32 72-72 72-40 0-72-32-72-72z"/>
            <glyph glyph-name="info-circle" unicode="&#109;"
                   d="M256 504c-137 0-248-111-248-248 0-137 111-248 248-248 137 0 248 111 248 248 0 137-111 248-248 248z m0-110c23 0 42-19 42-42 0-23-19-42-42-42-23 0-42 19-42 42 0 23 19 42 42 42z m56-254c0-7-5-12-12-12l-88 0c-7 0-12 5-12 12l0 24c0 7 5 12 12 12l12 0 0 64-12 0c-7 0-12 5-12 12l0 24c0 7 5 12 12 12l64 0c7 0 12-5 12-12l0-100 12 0c7 0 12-5 12-12z"/>
            <glyph glyph-name="file" unicode="&#110;"
                   d="M288 376l0 136-200 0c-13 0-24-11-24-24l0-464c0-13 11-24 24-24l336 0c13 0 24 11 24 24l0 328-136 0c-13 0-24 11-24 24z m160 14l0-6-128 0 0 128 6 0c7 0 13-3 17-7l98-98c5-5 7-11 7-17z"/>
            <glyph glyph-name="spinner" unicode="&#111;"
                   d="M288 480c0-18-14-32-32-32-18 0-32 14-32 32 0 18 14 32 32 32 18 0 32-14 32-32z m-32-416c-18 0-32-14-32-32 0-18 14-32 32-32 18 0 32 14 32 32 0 18-14 32-32 32z m256 192c0 18-14 32-32 32-18 0-32-14-32-32 0-18 14-32 32-32 18 0 32 14 32 32z m-448 0c0 18-14 32-32 32-18 0-32-14-32-32 0-18 14-32 32-32 18 0 32 14 32 32z m34-126c-18 0-32-15-32-32 0-18 14-32 32-32 17 0 32 14 32 32 0 17-15 32-32 32z m316 0c-17 0-32-15-32-32 0-18 15-32 32-32 18 0 32 14 32 32 0 17-14 32-32 32z m-316 316c-18 0-32-14-32-32 0-17 14-32 32-32 17 0 32 15 32 32 0 18-15 32-32 32z"/>
            <glyph glyph-name="check" unicode="&#112;"
                   d="M174 73l-167 166c-10 10-10 26 0 36l37 36c10 10 26 10 36 0l112-112 240 240c10 10 26 10 36 0l37-36c10-10 10-26 0-36l-295-294c-10-10-26-10-36 0z"/>
            <glyph glyph-name="user-tie" unicode="&#113;"
                   d="M256 256c71 0 128 57 128 128 0 71-57 128-128 128-71 0-128-57-128-128 0-71 57-128 128-128z m96-33l-48-191-32 136 32 56-96 0 32-56-32-136-48 191c-71-3-128-61-128-133l0-42c0-27 22-48 48-48l352 0c27 0 48 21 48 48l0 42c0 72-57 130-128 133z"/>
            <glyph glyph-name="ban" unicode="&#114;"
                   d="M256 504c-137 0-248-111-248-248 0-137 111-248 248-248 137 0 248 111 248 248 0 137-111 248-248 248z m130-118c66-65 70-165 21-236l-257 257c71 49 171 45 236-21z m-260-260c-66 65-70 165-21 236l257-257c-71-49-171-45-236 21z"/>
            <glyph glyph-name="linkedin" unicode="&#115;"
                   d="M132 64l-93 0 0 299 93 0z m-46 340c-30 0-54 24-54 54 0 30 24 54 54 54 29 0 54-24 54-54 0-30-25-54-54-54z m394-340l-93 0 0 146c0 34 0 79-48 79-48 0-56-38-56-77l0-148-93 0 0 299 90 0 0-41 1 0c12 24 43 49 88 49 94 0 111-62 111-143l0-164z"/>
            <glyph glyph-name="instagram" unicode="&#116;"
                   d="M331 256c0-41-34-75-75-75-41 0-75 34-75 75 0 41 34 75 75 75 41 0 75-34 75-75z m148-92c-2-36-10-68-37-94-26-27-58-35-93-36-37-3-148-3-185 0-36 1-68 10-94 36-27 26-35 58-36 94-3 37-3 148 0 185 1 35 9 67 36 93 26 27 58 35 94 37 37 2 148 2 185 0 35-2 67-10 93-37 27-26 35-58 37-94 2-37 2-147 0-184z m-108 92c0 64-51 115-115 115-63 0-115-51-115-115 0-64 52-115 115-115 64 0 115 51 115 115z m32 120c0 14-12 26-27 26-15 0-27-12-27-26 0-15 12-27 27-27 15 0 27 12 27 27z"/>
            <glyph glyph-name="times" unicode="&#117;"
                   d="M323 256l100 100c12 12 12 32 0 45l-22 22c-13 12-33 12-45 0l-100-100-100 100c-12 12-32 12-45 0l-22-22c-12-13-12-33 0-45l100-100-100-100c-12-12-12-32 0-45l22-22c13-12 33-12 45 0l100 100 100-100c12-12 32-12 45 0l22 22c12 13 12 33 0 45z"/>
            <glyph glyph-name="info" unicode="&#118;"
                   d="M180 88l20 0 0 144-20 0c-11 0-20 9-20 20l0 48c0 11 9 20 20 20l112 0c11 0 20-9 20-20l0-212 20 0c11 0 20-9 20-20l0-48c0-11-9-20-20-20l-152 0c-11 0-20 9-20 20l0 48c0 11 9 20 20 20z m76 424c-40 0-72-32-72-72 0-40 32-72 72-72 40 0 72 32 72 72 0 40-32 72-72 72z"/>
            <glyph glyph-name="exclamation" unicode="&#119;"
                   d="M336 80c0-44-36-80-80-80-44 0-80 36-80 80 0 44 36 80 80 80 44 0 80-36 80-80z m-151 407l14-272c1-13 11-23 24-23l66 0c13 0 24 10 24 23l14 272c0 14-11 25-24 25l-94 0c-13 0-24-11-24-25z"/>
            <glyph glyph-name="exclamation-triangle" unicode="&#121;"
                   d="M506 92c17-28-4-64-37-64l-426 0c-33 0-54 36-37 64l213 370c16 29 58 29 74 0z m-250 77c-23 0-41-18-41-41 0-23 18-41 41-41 23 0 41 18 41 41 0 23-18 41-41 41z m-39 147l7-121c0-6 5-10 10-10l44 0c5 0 10 4 10 10l7 121c0 6-5 11-11 11l-56 0c-6 0-11-5-11-11z"/>
            <glyph glyph-name="chevron-left" unicode="&#120;"
                   d="M131 273l194 194c9 10 24 10 34 0l22-22c10-10 10-25 1-34l-155-155 155-155c9-9 9-24-1-34l-22-22c-10-10-25-10-34 0l-194 194c-10 9-10 25 0 34z"/>
            <glyph glyph-name="chevron-right" unicode="&#122;"
                   d="M381 239l-194-194c-9-10-24-10-34 0l-22 22c-10 10-10 25-1 34l155 155-155 155c-9 9-9 24 1 34l22 22c10 10 25 10 34 0l194-194c10-9 10-25 0-34z"/>
            <glyph glyph-name="pen" unicode="&#65;"
                   d="M291 419l128-128-278-278-114-13c-16-2-29 11-27 27l13 114z m207 19l-60 60c-19 19-49 19-68 0l-57-57 128-128 57 57c19 19 19 49 0 68z"/>
            <glyph glyph-name="angle-down" unicode="&#66;"
                   d="M239 160l-136 136c-9 9-9 24 0 34l23 22c9 10 24 10 34 0l96-96 96 96c10 10 25 10 34 0l23-22c9-10 9-25 0-34l-136-136c-9-10-25-10-34 0z"/>
            <glyph glyph-name="angle-up" unicode="&#67;"
                   d="M273 352l136-136c9-9 9-24 0-34l-23-22c-9-10-24-10-33 0l-97 96-96-96c-10-10-25-10-34 0l-23 22c-9 10-9 25 0 34l136 136c9 10 25 10 34 0z"/>
            <glyph glyph-name="folders" unicode="&#68;"
                   d="M77 192l0 166-39 0c-21 0-38-17-38-38l0-230c0-22 17-39 38-39l333 0c21 0 39 17 39 39l0 38-269 0c-35 0-64 29-64 64z m397 218l-154 0-51 51-128 0c-21 0-39-17-39-39l0-230c0-21 18-38 39-38l333 0c21 0 38 17 38 38l0 179c0 21-17 39-38 39z"/>
            <glyph glyph-name="folder" unicode="&#69;"
                   d="M464 384l-192 0-64 64-160 0c-27 0-48-21-48-48l0-288c0-27 21-48 48-48l416 0c27 0 48 21 48 48l0 224c0 27-21 48-48 48z"/>
            <glyph glyph-name="users" unicode="&#70;"
                   d="M77 282c28 0 51 23 51 51 0 28-23 51-51 51-28 0-51-23-51-51 0-28 23-51 51-51z m358 0c28 0 51 23 51 51 0 28-23 51-51 51-28 0-51-23-51-51 0-28 23-51 51-51z m26-26l-51 0c-14 0-27-6-36-15 32-18 55-49 60-87l52 0c15 0 26 11 26 25l0 26c0 28-23 51-51 51z m-205 0c50 0 90 40 90 90 0 49-40 89-90 89-50 0-90-40-90-89 0-50 40-90 90-90z m61-26l-6 0c-17-8-35-12-55-12-20 0-38 4-55 12l-6 0c-51 0-93-41-93-92l0-23c0-21 18-38 39-38l230 0c21 0 39 17 39 38l0 23c0 51-42 92-93 92z m-179 11c-9 9-22 15-36 15l-51 0c-28 0-51-23-51-51l0-26c0-14 11-25 26-25l52 0c5 38 28 69 60 87z"/>
            <glyph glyph-name="stroopwafel" unicode="&#71;"
                   d="M188 301l-45-45 45-45 45 45z m113 23l-45 45-45-45 45-45z m-90-136l45-45 45 45-45 45z m45 324c-141 0-256-115-256-256 0-141 115-256 256-256 141 0 256 115 256 256 0 141-115 256-256 256z m187-296l-12-11c-3-3-8-3-11 0l-28 28-45-45 33-34 17 17c4 3 9 3 12 0l11-11c3-3 3-8 0-11l-17-17 17-17c3-4 3-9 0-12l-11-11c-3-3-8-3-12 0l-17 17-17-17c-3-3-8-3-11 0l-11 11c-3 3-3 8 0 12l17 17-34 34-45-46 28-28c3-3 3-8 0-11l-11-12c-3-3-9-3-12 0l-28 29-28-29c-3-3-8-3-12 0l-11 12c-3 3-3 8 0 11l28 28-45 45-34-33 17-17c3-4 3-9 0-12l-11-11c-3-3-8-3-11 0l-17 17-17-17c-4-3-9-3-12 0l-11 11c-3 3-3 8 0 12l17 17-17 17c-3 3-3 8 0 11l11 11c3 3 8 3 12 0l17-17 34 34-46 45-28-28c-3-3-8-3-11 0l-12 11c-3 4-3 9 0 12l29 28-29 28c-3 3-3 8 0 12l12 11c3 3 8 3 11 0l28-28 45 45-33 34-17-17c-4-3-9-3-12 0l-11 11c-3 3-3 8 0 11l17 17-17 17c-3 4-3 9 0 12l11 11c3 3 8 3 12 0l17-17 17 17c3 3 8 3 11 0l11-11c3-3 3-8 0-12l-17-17 34-34 45 46-28 28c-3 3-3 8 0 11l11 12c4 3 9 3 12 0l28-29 28 29c3 3 8 3 12 0l11-12c3-3 3-8 0-11l-28-28 45-45 34 33-17 17c-3 4-3 9 0 12l11 11c3 3 8 3 11 0l17-17 17 17c4 3 9 3 12 0l11-11c3-3 3-8 0-12l-17-17 17-17c3-3 3-8 0-11l-11-11c-3-3-8-3-12 0l-17 17-33-34 45-45 28 28c3 3 8 3 11 0l12-11c3-4 3-9 0-12l-29-28 29-28c3-3 3-8 0-12z m-164 40l45-45 45 45-45 45z"/>
            <glyph glyph-name="angle-left" unicode="&#72;"
                   d="M160 273l136 136c9 9 24 9 34 0l22-23c10-9 10-24 0-34l-96-96 96-96c10-10 10-25 0-34l-22-23c-10-9-25-9-34 0l-136 136c-10 9-10 25 0 34z"/>
            <glyph glyph-name="angle-right" unicode="&#73;"
                   d="M352 239l-136-136c-9-9-24-9-34 0l-22 23c-10 9-10 24 0 33l96 97-96 96c-10 10-10 25 0 34l22 23c10 9 25 9 34 0l136-136c10-9 10-25 0-34z"/>
            <glyph glyph-name="sliders-h" unicode="&#74;"
                   d="M496 128l-336 0 0 16c0 9-7 16-16 16l-32 0c-9 0-16-7-16-16l0-16-80 0c-9 0-16-7-16-16l0-32c0-9 7-16 16-16l80 0 0-16c0-9 7-16 16-16l32 0c9 0 16 7 16 16l0 16 336 0c9 0 16 7 16 16l0 32c0 9-7 16-16 16z m0 160l-80 0 0 16c0 9-7 16-16 16l-32 0c-9 0-16-7-16-16l0-16-336 0c-9 0-16-7-16-16l0-32c0-9 7-16 16-16l336 0 0-16c0-9 7-16 16-16l32 0c9 0 16 7 16 16l0 16 80 0c9 0 16 7 16 16l0 32c0 9-7 16-16 16z m0 160l-208 0 0 16c0 9-7 16-16 16l-32 0c-9 0-16-7-16-16l0-16-208 0c-9 0-16-7-16-16l0-32c0-9 7-16 16-16l208 0 0-16c0-9 7-16 16-16l32 0c9 0 16 7 16 16l0 16 208 0c9 0 16 7 16 16l0 32c0 9-7 16-16 16z"/>
            <glyph glyph-name="file-plus" unicode="&#75;"
                   d="M448 390l0-6-128 0 0 128 6 0c7 0 13-3 17-7l98-98c5-5 7-11 7-17z m-136-38l136 0 0-328c0-13-11-24-24-24l-336 0c-13 0-24 11-24 24l0 464c0 13 11 24 24 24l200 0 0-136c0-13 11-24 24-24z m48-140c0 7-5 12-12 12l-60 0 0 60c0 7-5 12-12 12l-40 0c-7 0-12-5-12-12l0-60-60 0c-7 0-12-5-12-12l0-40c0-7 5-12 12-12l60 0 0-60c0-7 5-12 12-12l40 0c7 0 12 5 12 12l0 60 60 0c7 0 12 5 12 12z"/>
            <glyph glyph-name="file-chart-line" unicode="&#76;"
                   d="M441 407l-98 98c-4 4-10 7-17 7l-6 0 0-128 128 0 0 6c0 6-2 12-7 17z m-153-31l0 136-200 0c-13 0-24-11-24-24l0-464c0-13 11-24 24-24l336 0c13 0 24 11 24 24l0 328-136 0c-13 0-24 11-24 24z m-96-299c0-7-6-13-13-13l-38 0c-7 0-13 6-13 13l0 70c0 7 6 13 13 13l38 0c7 0 13-6 13-13z m96 0c0-7-6-13-13-13l-38 0c-7 0-13 6-13 13l0 198c0 7 6 13 13 13l38 0c7 0 13-6 13-13z m32 134c0 7 6 13 13 13l38 0c7 0 13-6 13-13l0-134c0-7-6-13-13-13l-38 0c-7 0-13 6-13 13z"/>
            <glyph glyph-name="folder-plus" unicode="&#77;"
                   d="M464 384l-192 0-64 64-160 0c-27 0-48-21-48-48l0-288c0-27 21-48 48-48l416 0c27 0 48 21 48 48l0 224c0 27-21 48-48 48z m-96-168c0-9-7-16-16-16l-72 0 0-72c0-9-7-16-16-16l-16 0c-9 0-16 7-16 16l0 72-72 0c-9 0-16 7-16 16l0 16c0 9 7 16 16 16l72 0 0 72c0 9 7 16 16 16l16 0c9 0 16-7 16-16l0-72 72 0c9 0 16-7 16-16z"/>
            <glyph glyph-name="save" unicode="&#78;"
                   d="M466 382l-84 84c-9 9-21 14-34 14l-268 0c-27 0-48-21-48-48l0-352c0-27 21-48 48-48l352 0c27 0 48 21 48 48l0 268c0 13-5 25-14 34z m-210-286c-35 0-64 29-64 64 0 35 29 64 64 64 35 0 64-29 64-64 0-35-29-64-64-64z m96 305l0-101c0-7-5-12-12-12l-232 0c-7 0-12 5-12 12l0 104c0 7 5 12 12 12l229 0c3 0 6-1 8-4l3-3c3-2 4-5 4-8z"/>
            <glyph glyph-name="print" unicode="&#79;"
                   d="M448 320l0 115c0 8-3 16-9 22l-46 46c-6 6-14 9-22 9l-275 0c-18 0-32-14-32-32l0-160c-35 0-64-29-64-64l0-112c0-9 7-16 16-16l48 0 0-96c0-18 14-32 32-32l320 0c18 0 32 14 32 32l0 96 48 0c9 0 16 7 16 16l0 112c0 35-29 64-64 64z m-64-256l-256 0 0 96 256 0z m0 224l-256 0 0 160 192 0 0-48c0-9 7-16 16-16l48 0z m48-72c-13 0-24 11-24 24 0 13 11 24 24 24 13 0 24-11 24-24 0-13-11-24-24-24z"/>
            <glyph glyph-name="file-export" unicode="&#80;"
                   d="M341 375c0 6-2 11-6 15l-87 87c-4 4-9 7-15 7l-5 0 0-114 113 0z m167-165l-86 85c-8 9-24 3-24-10l0-57-57 0 0-57 57 0 0-58c0-13 16-19 24-10l86 85c5 6 5 16 0 22z m-337-25l0 28c0 8 6 15 14 15l156 0 0 113-121 0c-11 0-21 10-21 22l0 121-178 0c-11 0-21-10-21-22l0-412c0-12 10-22 21-22l299 0c12 0 21 10 21 22l0 121-156 0c-8 0-14 6-14 14z"/>
            <glyph glyph-name="trash-alt" unicode="&#81;"
                   d="M64 48c0-27 21-48 48-48l288 0c27 0 48 21 48 48l0 336-384 0z m272 256c0 9 7 16 16 16 9 0 16-7 16-16l0-224c0-9-7-16-16-16-9 0-16 7-16 16z m-96 0c0 9 7 16 16 16 9 0 16-7 16-16l0-224c0-9-7-16-16-16-9 0-16 7-16 16z m-96 0c0 9 7 16 16 16 9 0 16-7 16-16l0-224c0-9-7-16-16-16-9 0-16 7-16 16z m320 176l-120 0-9 19c-4 8-13 13-22 13l-114 0c-9 0-18-5-22-13l-9-19-120 0c-9 0-16-7-16-16l0-32c0-9 7-16 16-16l416 0c9 0 16 7 16 16l0 32c0 9-7 16-16 16z"/>
            <glyph glyph-name="chart-network" unicode="&#82;"
                   d="M461 307c28 0 51 23 51 51 0 29-23 52-51 52-28 0-51-23-51-52 0-28 23-51 51-51z m-410-38c-28 0-51-23-51-51 0-29 23-52 51-52 28 0 51 23 51 52 0 28-23 51-51 51z m360 30l-15 20-39-29 15-20z m50-145c-12 0-22-4-31-11l-77 46c3 9 5 19 5 29 0 49-40 89-89 89-7 0-13-1-20-2l-32 70c8 9 13 21 13 35 0 28-23 51-51 51-28 0-51-23-51-51 0-29 23-52 51-52 1 0 2 1 3 1l33-71c-22-16-36-41-36-70 0-50 40-90 90-90 25 0 48 11 65 28l76-46c0-2 0-5 0-8 0-28 23-51 51-51 28 0 51 23 51 51 0 29-23 52-51 52z m-192 25c-21 0-39 17-39 39 0 21 18 38 39 38 21 0 38-17 38-38 0-22-17-39-38-39z m-147 26l38 0 0 25-38 0z"/>
            <glyph glyph-name="link" unicode="&#83;"
                   d="M327 327c59-60 59-156 0-215 0 0 0 0 0 0l-68-68c-59-59-155-59-215 0-59 60-59 156 0 215l38 38c9 9 26 3 27-11 1-18 4-36 10-53 2-6 0-12-4-16l-13-14c-28-28-29-73-1-101 28-29 74-29 102-1l67 67c28 28 28 74 0 102-4 4-7 7-10 9-4 2-7 7-7 12-1 11 3 22 11 30l22 21c5 6 14 6 20 2 7-5 14-11 21-17z m141 141c-60 59-156 59-215 0l-68-68c0 0 0 0 0 0-59-59-59-155 0-215 7-6 14-12 21-17 6-4 15-4 20 2l22 21c8 8 12 19 11 30 0 5-3 10-7 12-3 2-6 5-10 9-28 28-28 74 0 102l67 67c28 28 74 28 102-1 28-28 27-73-1-101l-13-14c-4-4-6-10-4-16 6-17 9-35 10-53 1-14 18-20 27-11l38 38c59 59 59 155 0 215z"/>
            <glyph glyph-name="archive" unicode="&#84;"
                   d="M32 64c0-18 14-32 32-32l384 0c18 0 32 14 32 32l0 288-448 0z m160 212c0 7 5 12 12 12l104 0c7 0 12-5 12-12l0-8c0-7-5-12-12-12l-104 0c-7 0-12 5-12 12z m288 204l-448 0c-18 0-32-14-32-32l0-48c0-9 7-16 16-16l480 0c9 0 16 7 16 16l0 48c0 18-14 32-32 32z"/>
            <glyph glyph-name="arrow-right" unicode="&#85;"
                   d="M223 445l22 22c9 10 24 10 34 0l194-194c9-9 9-25 0-34l-194-194c-10-10-25-10-34 0l-22 22c-10 9-10 25 0 34l120 115-287 0c-13 0-24 11-24 24l0 32c0 13 11 24 24 24l287 0-120 115c-10 9-10 25 0 34z"/>
            <glyph glyph-name="layer-plus" unicode="&#86;"
                   d="M304 368l64 0 0-64c0-9 7-16 16-16l32 0c9 0 16 7 16 16l0 64 64 0c9 0 16 7 16 16l0 32c0 9-7 16-16 16l-64 0 0 64c0 9-7 16-16 16l-32 0c-9 0-16-7-16-16l0-64-64 0c-9 0-16-7-16-16l0-32c0-9 7-16 16-16z m196-220l-59 26-161-73c-8-3-16-5-24-5-8 0-16 2-24 5l-161 73-59-26c-16-8-16-33 0-40l233-106c7-3 15-3 22 0l233 106c16 7 16 32 0 40z m-488 88l233-105c7-4 15-4 22 0l181 82 0 18c-15-4-31-7-48-7-88 0-161 65-174 149l-214-97c-16-7-16-32 0-40z"/>
            <glyph glyph-name="map-marker-alt" unicode="&#87;"
                   d="M236 10c-145 211-172 233-172 310 0 106 86 192 192 192 106 0 192-86 192-192 0-77-27-99-172-310-10-13-30-13-40 0z m20 230c44 0 80 36 80 80 0 44-36 80-80 80-44 0-80-36-80-80 0-44 36-80 80-80z"/>
            <glyph glyph-name="chart-bar" unicode="&#88;"
                   d="M333 192l38 0c7 0 13 6 13 13l0 134c0 7-6 13-13 13l-38 0c-7 0-13-6-13-13l0-134c0-7 6-13 13-13z m96 0l38 0c7 0 13 6 13 13l0 230c0 7-6 13-13 13l-38 0c-7 0-13-6-13-13l0-230c0-7 6-13 13-13z m-288 0l38 0c7 0 13 6 13 13l0 70c0 7-6 13-13 13l-38 0c-7 0-13-6-13-13l0-70c0-7 6-13 13-13z m96 0l38 0c7 0 13 6 13 13l0 198c0 7-6 13-13 13l-38 0c-7 0-13-6-13-13l0-198c0-7 6-13 13-13z m259-64l-432 0 0 304c0 9-7 16-16 16l-32 0c-9 0-16-7-16-16l0-336c0-18 14-32 32-32l464 0c9 0 16 7 16 16l0 32c0 9-7 16-16 16z"/>
            <glyph glyph-name="mask" unicode="&#89;"
                   d="M257 410c-355 0-287-308-127-308 32 0 62 17 81 45l20 30c13 19 38 19 51 0l20-30c19-28 49-45 81-45 152 0 233 308-126 308z m-110-196c-33 0-54 21-64 33-4 5-4 13 0 18 10 12 31 33 64 33 33 0 54-21 64-33 4-5 4-13 0-18-10-12-31-33-64-33z m218 0c-33 0-54 21-64 33-4 5-4 13 0 18 10 12 31 33 64 33 33 0 54-21 64-33 4-5 4-13 0-18-10-12-31-33-64-33z"/>
            <glyph glyph-name="list-ul" unicode="&#90;"
                   d="M48 464c-27 0-48-21-48-48 0-27 21-48 48-48 27 0 48 21 48 48 0 27-21 48-48 48z m0-160c-27 0-48-21-48-48 0-27 21-48 48-48 27 0 48 21 48 48 0 27-21 48-48 48z m0-160c-27 0-48-21-48-48 0-27 21-48 48-48 27 0 48 21 48 48 0 27-21 48-48 48z m448-16l-320 0c-9 0-16-7-16-16l0-32c0-9 7-16 16-16l320 0c9 0 16 7 16 16l0 32c0 9-7 16-16 16z m0 320l-320 0c-9 0-16-7-16-16l0-32c0-9 7-16 16-16l320 0c9 0 16 7 16 16l0 32c0 9-7 16-16 16z m0-160l-320 0c-9 0-16-7-16-16l0-32c0-9 7-16 16-16l320 0c9 0 16 7 16 16l0 32c0 9-7 16-16 16z"/>
            <glyph glyph-name="phone-alt" unicode="&#48;"
                   d="M497 150l-112 48c-9 4-21 2-28-7l-49-60c-78 36-141 99-177 177l60 49c8 7 11 19 7 28l-48 112c-5 11-16 17-27 14l-104-24c-11-2-19-12-19-23 0-257 208-464 464-464 11 0 21 8 23 19l24 104c3 11-3 23-14 27z"/>
            <glyph glyph-name="power-off" unicode="&#49;"
                   d="M400 458c63-45 104-119 104-202 0-137-111-248-247-248-137 0-249 111-249 248 0 83 41 157 104 202 12 8 28 5 35-8l16-28c6-11 3-24-7-31-41-31-68-80-68-135 0-92 75-168 168-168 92 0 169 74 168 169 0 52-25 102-68 134-10 7-12 21-7 31l16 28c7 12 23 16 35 8z m-104-210l0 240c0 13-11 24-24 24l-32 0c-13 0-24-11-24-24l0-240c0-13 11-24 24-24l32 0c13 0 24 11 24 24z"/>
            <glyph glyph-name="rectangle-landscape" unicode="&#50;"
                   d="M464 64l-416 0c-26 0-48 21-48 48l0 288c0 26 22 48 48 48l416 0c27 0 48-22 48-48l0-288c0-27-21-48-48-48z"/>
            <glyph glyph-name="bars" unicode="&#51;"
                   d="M48 380l416 0c9 0 16 7 16 16l0 40c0 9-7 16-16 16l-416 0c-9 0-16-7-16-16l0-40c0-9 7-16 16-16z m0-160l416 0c9 0 16 7 16 16l0 40c0 9-7 16-16 16l-416 0c-9 0-16-7-16-16l0-40c0-9 7-16 16-16z m0-160l416 0c9 0 16 7 16 16l0 40c0 9-7 16-16 16l-416 0c-9 0-16-7-16-16l0-40c0-9 7-16 16-16z"/>
            <glyph glyph-name="arrow-to-left" unicode="&#52;"
                   d="M32 88l0 336c0 13 11 24 24 24l24 0c13 0 24-11 24-24l0-336c0-13-11-24-24-24l-24 0c-13 0-24 11-24 24z m281 66l-66 66 209 0c13 0 24 11 24 24l0 24c0 13-11 24-24 24l-209 0 66 66c9 9 9 24 0 33l-17 17c-10 10-25 10-34 0l-136-135c-9-9-9-25 0-34l136-135c9-10 24-10 34 0l17 17c9 9 9 24 0 33z"/>
            <glyph glyph-name="arrow-to-right" unicode="&#53;"
                   d="M480 424l0-336c0-13-11-24-24-24l-24 0c-13 0-24 11-24 24l0 336c0 13 11 24 24 24l24 0c13 0 24-11 24-24z m-280-66l65-66-209 0c-13 0-24-11-24-24l0-24c0-13 11-24 24-24l209 0-65-66c-10-9-10-24 0-34l17-17c9-9 24-9 33 0l136 136c9 9 9 25 0 34l-136 135c-9 10-24 10-33 0l-17-17c-10-9-10-24 0-33z"/>
            <glyph glyph-name="archive-arrow-down" unicode="&#54;"
                   d="M32 64c0-18 14-32 32-32l384 0c18 0 32 14 32 32l0 288-448 0z m448 416l-448 0c-18 0-32-14-32-32l0-48c0-9 7-16 16-16l480 0c9 0 16 7 16 16l0 48c0 18-14 32-32 32z m-113-320l-93-92c-5-5-11-7-17-7-6 0-13 2-17 7l-93 92c-4 5-7 11-7 17 0 7 3 13 7 17l11 11c5 5 11 7 17 7 7 0 13-3 18-7l32-35 0 126c0 6 3 12 7 17 5 4 11 7 17 7l16 0c6 0 12-3 17-7 4-5 7-11 7-17l0-126 32 35c5 4 11 7 18 7 6 0 12-2 17-7l11-11c9-9 9-24 0-34z"/>
            <glyph glyph-name="archive-arrow-up" unicode="&#55;"
                   d="M32 64c0-18 14-32 32-32l384 0c18 0 32 14 32 32l0 288-448 0z m448 416l-448 0c-18 0-32-14-32-32l0-48c0-9 7-16 16-16l480 0c9 0 16 7 16 16l0 48c0 18-14 32-32 32z m-333-256l93 92c5 5 11 7 17 7 6 0 13-2 17-7l93-92c4-5 7-11 7-17 0-7-3-13-7-17l-11-11c-5-5-11-7-17-7-7 0-13 3-18 7l-32 35 0-126c0-6-3-12-7-17-5-4-11-7-17-7l-16 0c-6 0-12 3-17 7-4 5-7 11-7 17l0 126-32-35c-5-4-11-7-18-7-6 0-12 2-17 7l-11 11c-9 9-9 24 0 34z"/>
            <glyph glyph-name="arrow-to-bottom" unicode="&#56;"
                   d="M424 32l-336 0c-13 0-24 11-24 24l0 24c0 13 11 24 24 24l336 0c13 0 24-11 24-24l0-24c0-13-11-24-24-24z m-66 280l-66-65 0 209c0 13-11 24-24 24l-24 0c-13 0-24-11-24-24l0-209-66 65c-9 10-24 10-33 0l-17-17c-10-9-10-24 0-33l135-136c9-9 25-9 34 0l135 136c10 9 10 24 0 33l-17 17c-9 10-24 10-33 0z"/>
            <glyph glyph-name="file-csv" unicode="&#57;"
                   d="M288 376l0 136-200 0c-13 0-24-11-24-24l0-464c0-13 11-24 24-24l336 0c13 0 24 11 24 24l0 328-136 0c-13 0-24 11-24 24z m-96-144c0-4-4-8-8-8l-8 0c-9 0-16-7-16-16l0-32c0-9 7-16 16-16l8 0c4 0 8-4 8-8l0-16c0-4-4-8-8-8l-8 0c-27 0-48 21-48 48l0 32c0 27 21 48 48 48l8 0c4 0 8-4 8-8z m44-104l-12 0c-4 0-8 4-8 8l0 16c0 4 4 8 8 8l12 0c6 0 11 3 11 7 0 1-1 2-2 3l-22 19c-9 7-14 18-14 28 0 22 19 39 43 39l12 0c4 0 8-4 8-8l0-16c0-4-4-8-8-8l-12 0c-6 0-11-4-11-7 0-1 1-2 2-3l22-19c9-7 14-18 14-28 0-22-19-39-43-39z m84 120l0-21c0-20 6-40 16-57 10 17 16 37 16 57l0 21c0 4 4 8 8 8l16 0c4 0 8-4 8-8l0-21c0-35-13-69-36-94-3-3-8-5-12-5-4 0-9 2-12 5-23 25-36 59-36 94l0 21c0 4 4 8 8 8l16 0c4 0 8-4 8-8z m121 159l-98 98c-4 4-10 7-17 7l-6 0 0-128 128 0 0 6c0 6-2 12-7 17z"/>
            <glyph glyph-name="map" unicode="&#33;"
                   d="M0 379l0-308c0-10 10-17 20-13l122 56 0 341-124-50c-11-4-18-14-18-26z m171-265l170-57 0 341-170 57z m321 340l-122-56 0-341 124 50c11 4 18 14 18 26l0 308c0 10-10 17-20 13z"/>
            <glyph glyph-name="graph" unicode="&#34;"
                   d="M440 288c-28 0-53-16-65-41l-31 6c0 1 0 2 0 3 0 28-13 55-36 71l20 43c36-8 72 12 84 46 12 35-4 73-37 89-33 16-73 4-92-27-19-31-12-72 16-94l-20-43c-25 7-52 2-73-13l-73 74c19 31 13 71-16 94-29 23-70 21-96-5-26-26-28-67-5-96 23-29 63-35 94-16l74-73c-19-28-21-64-5-93l-63-52c-29 22-70 19-96-7-25-26-27-68-3-96 23-28 64-34 94-14 31 20 42 60 25 92l64 53c22-19 51-25 79-18l20-43c-28-22-36-63-16-94 19-31 59-43 92-27 33 16 49 54 37 89-12 34-48 54-84 46l-20 43c13 9 23 22 29 37l31-7c0-39 33-71 72-71 40 0 72 33 72 72 0 40-32 72-72 72z"/>
            <glyph glyph-name="twitter" unicode="&#35;"
                   d="M459 360c1-4 1-9 1-13 0-139-106-299-299-299-59 0-115 17-161 47 8-1 17-1 25-1 49 0 95 16 131 45-47 1-85 31-98 72 6 0 12-1 19-1 10 0 19 1 28 3-48 10-84 52-84 103l0 2c14-8 30-13 47-14-28 19-47 51-47 88 0 19 6 37 15 53 51-64 129-106 216-110-2 8-2 16-2 24 0 58 46 105 104 105 31 0 58-13 77-33 24 4 47 13 67 25-8-24-25-45-46-58 21 3 41 8 60 17-14-21-32-40-53-55z"/>
            <glyph glyph-name="user-secret" unicode="&#36;"
                   d="M416 204l24 62c4 11-4 22-15 22l-59 0c11 19 18 41 18 64l0 0c39 8 64 19 64 32 0 13-27 25-70 33-9 33-27 66-41 83-9 12-25 15-39 9l-28-14c-9-5-19-5-28 0l-28 14c-13 6-30 3-39-9-14-17-32-50-41-83-43-8-70-20-70-33 0-13 25-24 64-32l0 0c0-23 7-45 18-64l-58 0c-11 0-19-12-14-22l25-61c-40-23-67-66-67-115l0-45c0-25 20-45 45-45l358 0c25 0 45 20 45 45l0 45c0 48-26 90-64 114z m-208-172l-42 192 50-32 24-40z m96 0l-32 120 24 40 50 32z m42 298c-4-11-7-24-17-33-10-9-48-22-64 25-3 8-15 8-18 0-17-50-56-32-64-25-10 9-13 22-17 33 0 3-6 6-6 6l0 11c28-4 61-6 96-6 35 0 68 2 96 6l0-11c0 0-5-3-6-6z"/>
            <glyph glyph-name="envelope" unicode="&#38;"
                   d="M502 321c4 3 10 0 10-5l0-204c0-27-21-48-48-48l-416 0c-26 0-48 21-48 48l0 204c0 5 6 8 10 5 22-17 52-39 154-114 21-15 57-47 92-47 36 0 72 33 92 47 102 75 132 97 154 114z m-246-129c23 0 57 29 73 41 133 97 143 105 174 129 6 5 9 12 9 19l0 19c0 26-21 48-48 48l-416 0c-26 0-48-22-48-48l0-19c0-7 3-14 9-19 31-24 41-32 174-129 16-12 50-41 73-41z"/>
            <glyph glyph-name="money-check-edit-alt" unicode="&#39;"
                   d="M164 368l3-4 57 58-33 33c-7 8-20 8-27 0l-30-30c-8-8-8-20 0-27z m322-35l-136 0 96-96c9-10 15-23 15-37l0-59c0-7-6-13-13-13l-237 0c-3 0-6 3-6 6l0 13c0 4 3 7 6 7l131 0-52 51-79 0c-3 0-6 3-6 6l0 13c0 4 3 6 6 6l54 0-103 103-136 0c-15 0-26-12-26-26l0-230c0-14 11-26 26-26l460 0c15 0 26 12 26 26l0 230c0 14-11 26-26 26z m-371-205l0-13c0-3-3-6-6-6l-13 0c-4 0-6 3-6 6l0 13c-9 1-18 4-25 9-2 1-3 3-3 5 0 2 1 4 2 5l9 9c3 2 6 2 9 1 3-2 6-3 10-3l22 0c5 0 10 4 10 10 0 5-3 9-7 10l-36 11c-15 5-26 19-26 35 0 19 16 35 35 36l0 13c0 3 2 6 6 6l13 0c3 0 6-3 6-6l0-13c9-1 18-4 25-9 2-1 3-3 3-5 0-2-1-4-2-5l-10-9c-2-2-5-2-8-1-3 2-6 3-10 3l-23 0c-5 0-9-4-9-10 0-5 3-9 7-10l36-11c15-5 25-19 25-35 0-19-15-35-34-36z m255 33c5-5 12-7 18-7l34 0c7 0 13 5 13 12l0 34c0 7-2 14-7 18l-185 186-58-58z"/>
            <glyph glyph-name="home" unicode="&#37;"
                   d="M249 352l-164-135 0-146c0-8 7-14 15-14l99 0c8 0 14 7 14 14l0 85c0 8 7 15 15 15l56 0c8 0 15-7 15-15l0-85c0-3 1-7 4-10 2-2 6-4 10-4l99 0c8 0 15 6 15 14l0 146-164 135c-4 3-10 3-14 0z m259-92l-74 61 0 123c0 6-5 11-11 11l-50 0c-6 0-10-5-10-11l0-64-80 65c-16 13-38 13-54 0l-225-185c-5-4-5-10-2-15l23-28c2-2 4-3 7-3 3-1 6 0 8 2l209 172c4 3 10 3 14 0l209-172c4-4 11-3 15 1l23 28c1 2 2 5 2 8 0 3-2 5-4 7z"/>
            <glyph glyph-name="calendar-plus" unicode="&#40;"
                   d="M468 352l-424 0c-7 0-12 5-12 12l0 36c0 26 22 48 48 48l48 0 0 52c0 7 5 12 12 12l40 0c7 0 12-5 12-12l0-52 128 0 0 52c0 7 5 12 12 12l40 0c7 0 12-5 12-12l0-52 48 0c27 0 48-22 48-48l0-36c0-7-5-12-12-12z m-424-32l424 0c7 0 12-5 12-12l0-260c0-27-21-48-48-48l-352 0c-26 0-48 21-48 48l0 260c0 7 5 12 12 12z m316-140c0 7-5 12-12 12l-60 0 0 60c0 7-5 12-12 12l-40 0c-7 0-12-5-12-12l0-60-60 0c-7 0-12-5-12-12l0-40c0-7 5-12 12-12l60 0 0-60c0-7 5-12 12-12l40 0c7 0 12 5 12 12l0 60 60 0c7 0 12 5 12 12z"/>
            <glyph glyph-name="siren-on" unicode="&#41;"
                   d="M179 353c1 2 1 3 3 4 1 1 3 2 5 1l12-1c2-1 3-1 4-3 2-1 2-3 2-5l-20-144 212 0-20 160c-3 25-25 45-51 45l-140 0c-26 0-48-20-51-45l-20-160 45 0z m243-174l-332 0c-7 0-13-6-13-13l0-51c0-7 6-13 13-13l332 0c7 0 13 6 13 13l0 51c0 7-6 13-13 13z m-332 128c0 11-9 19-20 19l-51 0c-10 0-19-8-19-19 0-10 9-19 19-19l51 0c11 0 20 9 20 19z m403 19l-51 0c-11 0-20-8-20-19 0-10 9-19 20-19l51 0c10 0 19 9 19 19 0 11-9 19-19 19z m-420 74c5-4 13-5 19-2 6 3 10 10 11 17 0 7-3 13-9 17l-39 26c-5 4-13 4-19 1-6-3-10-9-11-16 0-7 3-14 9-17z m356-3c4 0 7 1 10 3l39 26c6 3 9 10 9 17-1 7-5 13-11 16-6 3-14 3-19-1l-39-26c-7-5-10-13-8-22 3-8 10-13 19-13z"/>
            <glyph glyph-name="tag" unicode="&#42;"
                   d="M0 260l0 204c0 27 21 48 48 48l204 0c13 0 25-5 34-14l212-212c19-19 19-49 0-68l-204-204c-19-19-49-19-68 0l-212 212c-9 9-14 21-14 34z m112 188c-27 0-48-21-48-48 0-27 21-48 48-48 27 0 48 21 48 48 0 27-21 48-48 48z"/>
            <glyph glyph-name="external-link-alt" unicode="&#43;"
                   d="M512 462l0-114c0-19-23-28-36-15l-32 32-217-216c-8-9-21-9-30 0l-20 20c-8 8-8 22 0 30l217 216-32 32c-14 14-4 37 15 37l114 0c11 0 21-10 21-22z m-150-219l-14-14c-4-4-7-10-7-15l0-129-284 0 0 285 235 0c5 0 11 2 15 6l14 14c13 14 4 37-15 37l-263 0c-24 0-43-19-43-43l0-313c0-23 19-43 43-43l313 0c23 0 42 20 42 43l0 157c0 19-23 28-36 15z"/>
            <glyph glyph-name="radar" unicode="&#44;"
                   d="M504 256c0-137-111-248-248-248-137 0-248 111-248 248 0 137 111 248 248 248 50 0 98-15 139-43l30 30c7 7 17 7 23 0l11-11c7-6 7-16 0-23l-201-201 0 0 62 0c0-35-28-64-63-64-35-1-64 27-65 62-1 35 27 65 62 66l28 28c-8 3-17 4-26 4-53 0-96-43-96-96 0-53 43-96 96-96 53 0 96 43 96 96l64 0c0-80-58-145-135-157-5 8-14 13-25 13-11 0-20-5-25-13-68 11-121 64-132 132 8 5 13 14 13 25 0 11-5 20-13 25 12 76 77 135 157 135 27 0 52-7 75-20l24 24c-30 18-64 28-99 28-96 0-176-71-190-163-11-5-18-17-18-29 0-12 7-24 18-29 13-83 78-148 161-161 5-11 17-18 29-18 12 0 24 7 29 18 92 14 163 94 163 190z"/>
            <glyph glyph-name="balance-scale" unicode="&#45;"
                   d="M205 192l0 0c0 13 1 7-68 145-14 28-55 28-69 0-70-139-68-132-68-145l0 0c0-35 46-64 102-64 57 0 103 29 103 64z m-103 128l58-115-115 0z m410-128c0 13 1 7-68 145-14 28-55 28-69 0-69-139-68-132-68-145l0 0c0-35 46-64 103-64 56 0 102 29 102 64z m-160 13l58 115 57-115z m70-103l-140 0 0 236c18 8 33 25 37 46l103 0c7 0 13 6 13 13l0 25c0 7-6 13-13 13l-115 0c-12 16-30 26-51 26-21 0-39-10-51-26l-115 0c-7 0-13-6-13-13l0-25c0-7 6-13 13-13l103 0c4-21 19-38 37-46l0-236-140 0c-7 0-13-5-13-12l0-26c0-7 6-13 13-13l332 0c7 0 13 6 13 13l0 26c0 7-6 12-13 12z"/>
            <glyph glyph-name="cannabis" unicode="&#46;"
                   d="M503 152c-1 1-32 17-76 26 64 75 84 161 85 165 1 6-1 11-5 15-3 3-7 5-11 5-1 0-2 0-3-1-4-1-87-19-161-79 0 1 0 2 0 4 0 119-60 214-63 218-2 4-8 7-13 7-5 0-11-3-13-7-3-4-63-99-63-218 0-2 0-3 0-4-74 60-157 78-161 79-1 1-2 1-3 1-4 0-8-2-11-5-4-4-6-9-5-15 1-4 21-90 85-165-44-9-75-25-76-26-6-3-9-8-9-14 0-6 3-12 9-15 2-1 60-31 133-31 6 0 12 0 18 0-12-22-17-38-17-39-2-6-1-12 4-16 4-5 10-6 16-4 2 0 37 12 77 39l0-64c0-4 4-8 8-8l16 0c4 0 8 4 8 8l0 64c40-27 75-39 77-39 6-2 12-1 16 4 5 4 6 10 4 16 0 1-5 17-16 39 5 0 11 0 17 0 73 0 131 30 133 31 6 3 9 9 9 15 0 6-3 11-9 14z"/>
            <glyph glyph-name="sign" unicode="&#47;"
                   d="M496 448l-368 0 0 48c0 9-7 16-16 16l-32 0c-9 0-16-7-16-16l0-48-48 0c-9 0-16-7-16-16l0-32c0-9 7-16 16-16l48 0 0-368c0-9 7-16 16-16l32 0c9 0 16 7 16 16l0 368 368 0c9 0 16 7 16 16l0 32c0 9-7 16-16 16z m-336-320l320 0 0 224-320 0z"/>
            <glyph glyph-name="pen-nib" unicode="&#58;"
                   d="M137 373c-21-6-37-21-44-41l-93-280 15-15 150 150c-3 7-5 14-5 21 0 27 21 48 48 48 27 0 48-21 48-48 0-27-21-48-48-48-7 0-14 2-21 5l-150-150 15-15 280 93c20 7 35 23 41 44l43 151-128 128z m361 65l-60 60c-19 19-49 19-68 0l-57-57 128-128 57 57c19 19 19 49 0 68z"/>
            <glyph glyph-name="image" unicode="&#59;"
                   d="M464 448l-416 0c-27 0-48-21-48-48l0-288c0-27 21-48 48-48l416 0c27 0 48 21 48 48l0 288c0 27-21 48-48 48z m-6-336l-404 0c-3 0-6 3-6 6l0 276c0 3 3 6 6 6l404 0c3 0 6-3 6-6l0-276c0-3-3-6-6-6z m-330 248c-22 0-40-18-40-40 0-22 18-40 40-40 22 0 40 18 40 40 0 22-18 40-40 40z m-32-200l320 0 0 80-88 88c-4 4-12 4-16 0l-120-120-40 40c-4 4-12 4-16 0l-40-40z"/>
            <glyph glyph-name="clock" unicode="&#60;"
                   d="M256 504c-137 0-248-111-248-248 0-137 111-248 248-248 137 0 248 111 248 248 0 137-111 248-248 248z m57-350l-88 64c-3 2-5 6-5 10l0 168c0 7 5 12 12 12l48 0c7 0 12-5 12-12l0-138 64-46c5-4 6-11 2-17l-28-39c-4-5-11-6-17-2z"/>
            <glyph glyph-name="address-card" unicode="&#63;"
                   d="M469 455l-426 0c-24 0-43-19-43-43l0-312c0-24 19-43 43-43l426 0c24 0 43 19 43 43l0 312c0 24-19 43-43 43z m-313-85c32 0 57-26 57-57 0-31-25-57-57-57-31 0-56 26-56 57 0 31 25 57 56 57z m100-211c0-9-9-17-20-17l-159 0c-11 0-20 8-20 17l0 17c0 29 27 52 60 52l4 0c11-5 23-8 35-8 13 0 25 3 36 8l4 0c33 0 60-23 60-52z m199 47c0-4-3-7-7-7l-128 0c-4 0-7 3-7 7l0 14c0 4 3 8 7 8l128 0c4 0 7-4 7-8z m0 57c0-4-3-7-7-7l-128 0c-4 0-7 3-7 7l0 14c0 4 3 7 7 7l128 0c4 0 7-3 7-7z m0 57c0-4-3-7-7-7l-128 0c-4 0-7 3-7 7l0 14c0 4 3 7 7 7l128 0c4 0 7-3 7-7z"/>
            <glyph glyph-name="comment-alt-exclamation" unicode="&#64;"
                   d="M448 512l-384 0c-35 0-64-29-64-64l0-288c0-35 29-64 64-64l96 0 0-84c0-10 11-16 19-10l125 94 144 0c35 0 64 29 64 64l0 288c0 35-29 64-64 64z m-192-336c-18 0-32 14-32 32 0 18 14 32 32 32 18 0 32-14 32-32 0-18-14-32-32-32z m25 110c0-8-7-14-15-14l-19 0c-9 0-16 6-16 14l-13 128c-1 10 6 18 16 18l44 0c10 0 17-8 16-18z"/>
            <glyph glyph-name="comment-alt-dots" unicode="&#91;"
                   d="M448 512l-384 0c-35 0-64-29-64-64l0-288c0-35 29-64 64-64l96 0 0-84c0-10 11-16 19-10l125 94 144 0c35 0 64 29 64 64l0 288c0 35-29 64-64 64z m-320-240c-18 0-32 14-32 32 0 18 14 32 32 32 18 0 32-14 32-32 0-18-14-32-32-32z m128 0c-18 0-32 14-32 32 0 18 14 32 32 32 18 0 32-14 32-32 0-18-14-32-32-32z m128 0c-18 0-32 14-32 32 0 18 14 32 32 32 18 0 32-14 32-32 0-18-14-32-32-32z"/>
            <glyph glyph-name="image-alt" unicode="&#62;"
                   d="M464 64l-416 0c-27 0-48 21-48 48l0 288c0 27 21 48 48 48l416 0c27 0 48-21 48-48l0-288c0-27-21-48-48-48z m-352 328c-31 0-56-25-56-56 0-31 25-56 56-56 31 0 56 25 56 56 0 31-25 56-56 56z m-48-264l384 0 0 112-88 88c-4 4-12 4-16 0l-136-136-56 56c-4 4-12 4-16 0l-72-72z"/>
            <glyph glyph-name="calendar-alt" unicode="&#93;"
                   d="M32 48c0-27 22-48 48-48l352 0c27 0 48 21 48 48l0 272-448 0z m320 196c0 7 5 12 12 12l40 0c7 0 12-5 12-12l0-40c0-7-5-12-12-12l-40 0c-7 0-12 5-12 12z m0-128c0 7 5 12 12 12l40 0c7 0 12-5 12-12l0-40c0-7-5-12-12-12l-40 0c-7 0-12 5-12 12z m-128 128c0 7 5 12 12 12l40 0c7 0 12-5 12-12l0-40c0-7-5-12-12-12l-40 0c-7 0-12 5-12 12z m0-128c0 7 5 12 12 12l40 0c7 0 12-5 12-12l0-40c0-7-5-12-12-12l-40 0c-7 0-12 5-12 12z m-128 128c0 7 5 12 12 12l40 0c7 0 12-5 12-12l0-40c0-7-5-12-12-12l-40 0c-7 0-12 5-12 12z m0-128c0 7 5 12 12 12l40 0c7 0 12-5 12-12l0-40c0-7-5-12-12-12l-40 0c-7 0-12 5-12 12z m336 332l-48 0 0 48c0 9-7 16-16 16l-32 0c-9 0-16-7-16-16l0-48-128 0 0 48c0 9-7 16-16 16l-32 0c-9 0-16-7-16-16l0-48-48 0c-26 0-48-22-48-48l0-48 448 0 0 48c0 26-21 48-48 48z"/>
            <glyph glyph-name="play" unicode="&#94;"
                   d="M456 297l-352 208c-28 17-72 1-72-41l0-416c0-38 41-60 72-41l352 208c32 18 32 64 0 82z"/>
            <glyph glyph-name="pause" unicode="&#95;"
                   d="M176 33l-96 0c-26 0-48 21-48 48l0 352c0 26 22 48 48 48l96 0c27 0 48-22 48-48l0-352c0-27-21-48-48-48z m304 48l0 352c0 26-21 48-48 48l-96 0c-26 0-48-22-48-48l0-352c0-27 22-48 48-48l96 0c27 0 48 21 48 48z"/>
            <glyph glyph-name="hourglass-full" unicode="&#123;"
                   d="M424 448c13 0 24 11 24 24l0 16c0 13-11 24-24 24l-336 0c-13 0-24-11-24-24l0-16c0-13 11-24 24-24 0-91 51-168 121-192-70-24-121-101-121-192-13 0-24-11-24-24l0-16c0-13 11-24 24-24l336 0c13 0 24 11 24 24l0 16c0 13-11 24-24 24 0 91-51 168-121 192 70 24 121 101 121 192z"/>
            <glyph glyph-name="hourglass-empty" unicode="&#96;"
                   d="M432 464l4 0c7 0 12 5 12 12l0 24c0 7-5 12-12 12l-360 0c-7 0-12-5-12-12l0-24c0-7 5-12 12-12l4 0c0-81 32-166 97-208-65-42-97-128-97-208l-4 0c-7 0-12-5-12-12l0-24c0-7 5-12 12-12l360 0c7 0 12 5 12 12l0 24c0 7-5 12-12 12l-4 0c0 81-32 166-97 208 65 42 97 128 97 208z m-304 0l256 0c0-102-57-184-128-184-71 0-128 82-128 184z m256-416l-256 0c0 102 57 184 128 184 71 0 128-82 128-184z"/>
            <glyph glyph-name="file-alt" unicode="&#124;"
                   d="M288 376l0 136-200 0c-13 0-24-11-24-24l0-464c0-13 11-24 24-24l336 0c13 0 24 11 24 24l0 328-136 0c-13 0-24 11-24 24z m64-236c0-7-5-12-12-12l-168 0c-7 0-12 5-12 12l0 8c0 7 5 12 12 12l168 0c7 0 12-5 12-12z m0 64c0-7-5-12-12-12l-168 0c-7 0-12 5-12 12l0 8c0 7 5 12 12 12l168 0c7 0 12-5 12-12z m0 72l0-8c0-7-5-12-12-12l-168 0c-7 0-12 5-12 12l0 8c0 7 5 12 12 12l168 0c7 0 12-5 12-12z m96 114l0-6-128 0 0 128 6 0c7 0 13-3 17-7l98-98c5-5 7-11 7-17z"/>
            <glyph glyph-name="adjust" unicode="&#125;"
                   d="M8 256c0-137 111-248 248-248 137 0 248 111 248 248 0 137-111 248-248 248-137 0-248-111-248-248z m248-184l0 368c102 0 184-82 184-184 0-102-82-184-184-184z"/>
            <glyph glyph-name="dna" unicode="&#126;"
                   d="M32 18c-1-10 6-18 16-18l32 0c8 0 15 6 16 14 1 5 2 11 4 18l312 0c2-7 3-13 4-18 1-8 7-14 16-14l32 0c9 0 17 8 16 18-5 38-26 129-119 208-18-13-37-25-59-36 7-4 12-9 17-14l-127 0c21 18 47 36 78 51 173 86 204 219 210 267 1 10-6 18-16 18l-32 0c-8 0-15-6-16-14-1-5-2-11-4-18l-312 0c-2 7-3 13-4 18-1 8-7 14-16 14l-32 0c-9 0-17-8-16-18 5-43 31-154 160-238-128-84-155-195-160-238z m224 274c-25 14-46 29-64 44l128 0c-18-15-39-30-64-44z m131 124c-6-10-13-21-21-32l-220 0c-8 11-15 22-21 32z m-262-320c6 10 13 21 21 32l219 0c9-11 16-22 22-32z"/>
            <glyph glyph-name="database" unicode="&#92;"
                   d="M480 439l0-46c0-40-100-73-224-73-124 0-224 33-224 73l0 46c0 40 100 73 224 73 124 0 224-33 224-73z m0-103l0-103c0-40-100-73-224-73-124 0-224 33-224 73l0 103c48-33 136-49 224-49 88 0 176 16 224 49z m0-160l0-103c0-40-100-73-224-73-124 0-224 33-224 73l0 103c48-33 136-49 224-49 88 0 176 16 224 49z"/>
            <glyph glyph-name="tree-palm" unicode="&#57344;"
                   d="M359 410c-32 0-60-10-82-25-15 44-65 76-124 76-65 0-118-38-127-87-2-8 5-16 14-16l43 0 19 39 27-54c-3-2-6-4-8-7-46-46-57-110-29-152 5-6 15-7 21 0l117 117c9-84-9-172-21-218-4-16 9-32 25-32l44 0c13 0 24 9 26 22 12 91-10 189-21 234l107 0 20 39 19-39 43 0c9 0 16 8 14 16-9 49-62 87-127 87z"/>
            <glyph glyph-name="checkbox" unicode="&#57345;"
                   d="M432 480l-352 0c-26 0-48-22-48-48l0-352c0-27 22-48 48-48l352 0c27 0 48 21 48 48l0 352c0 26-21 48-48 48z"/>
            <glyph glyph-name="arrows" unicode="&#57346;"
                   d="M353 83l-74-74c-13-12-33-12-46 0l-74 74c-9 10-9 25 0 34l11 11c10 10 25 9 35 0l23-26 0 126-126 0 26-23c10-10 10-25 0-35l-11-11c-9-9-24-9-34 0l-74 74c-12 13-12 33 0 46l74 74c10 9 25 9 34 0l11-11c10-10 10-25 0-35l-26-23 126 0 0 126-23-26c-10-10-25-10-35 0l-11 11c-9 9-9 24 0 34l74 74c13 12 33 12 46 0l74-74c9-10 9-25 0-34l-11-11c-10-10-25-10-35 0l-23 26 0-126 126 0-26 23c-9 10-10 25 0 35l11 11c9 9 24 9 34 0l74-74c12-13 12-33 0-46l-74-74c-10-9-25-9-34 0l-11 11c-10 10-9 25 0 35l26 23-126 0 0-126 23 26c10 9 25 10 35 0l11-11c9-9 9-24 0-34z"/>
            <glyph glyph-name="bookmark" unicode="&#57347;"
                   d="M64 0l0 464c0 27 21 48 48 48l288 0c27 0 48-21 48-48l0-464-192 112z"/>
            <glyph glyph-name="bookmark-o" unicode="&#57348;"
                   d="M400 512l-288 0c-27 0-48-21-48-48l0-464 192 112 192-112 0 464c0 27-21 48-48 48z m0-428l-144 84-144-84 0 374c0 3 3 6 6 6l276 0c3 0 6-3 6-6z"/>
            <glyph glyph-name="file-code" unicode="&#57349;"
                   d="M448 390l0-6-128 0 0 128 6 0c6 0 13-3 17-7l98-98c4-4 7-11 7-17z m-136-38c-13 0-24 11-24 24l0 136-200 0c-13 0-24-11-24-24l0-464c0-13 11-24 24-24l336 0c13 0 24 11 24 24l0 328z m-125-241c-2-2-5-2-7 0l-65 61c-1 1-2 3-2 4 0 1 1 3 2 4l65 61c2 2 5 2 7 0l20-21c1-1 1-3 1-4 0-2 0-3-2-4l-40-36 40-36c2-1 2-2 2-4 0-1 0-3-1-4z m52-50l-28 8c-3 1-4 4-4 7l62 211c1 3 4 5 7 4l27-8c3-1 4-4 4-7l-62-211c-1-3-4-5-6-4z m160 111l-65-61c-2-2-5-2-7 0l-20 21c-1 1-1 3-1 4 0 2 0 3 2 4l40 36-40 36c-2 1-2 2-2 4 0 1 0 3 1 4l20 21c2 2 5 2 7 0l65-61c1-1 2-3 2-4 0-1-1-3-2-4z"/>
            <glyph glyph-name="star" unicode="&#61;"
                   d="M230 468l-58-118-129-19c-24-3-33-32-16-48l94-92-22-129c-4-24 20-41 41-30l116 61 116-61c21-11 45 6 41 30l-22 129 94 92c17 16 8 45-16 48l-129 19-58 118c-11 21-41 21-52 0z"/>
            <glyph glyph-name="thumbs-up" unicode="&#57350;"
                   d="M104 288l-80 0c-13 0-24-11-24-24l0-240c0-13 11-24 24-24l80 0c13 0 24 11 24 24l0 240c0 13-11 24-24 24z m-40-248c-13 0-24 11-24 24 0 13 11 24 24 24 13 0 24-11 24-24 0-13-11-24-24-24z m320 391c0-43-26-67-33-95l101 0c34 0 60-28 60-58 0-18-8-37-19-49l-1 0c10-24 9-56-9-80 9-26 0-58-16-75 4-17 2-32-6-44-21-30-71-30-114-30l-3 0c-48 0-88 18-120 32-16 7-36 16-52 16-7 0-12 5-12 12l0 214c0 3 1 6 4 8 39 39 56 81 89 113 14 15 20 38 25 59 5 19 14 58 34 58 24 0 72-8 72-81z"/>
            <glyph glyph-name="map-marker-check" unicode="&#57351;"
                   d="M256 512c-106 0-192-86-192-192 0-77 26-99 173-310 9-13 29-13 38 0 147 211 173 233 173 310 0 106-86 192-192 192z m114-164l-131-130c-4-4-11-4-16 0l-75 77c-5 4-4 11 0 15l26 26c4 4 11 4 15 0l43-43 97 97c4 4 11 4 15 0l26-26c4-5 4-12 0-16z"/>
            <glyph glyph-name="sticky-note" unicode="&#57352;"
                   d="M344 192l136 0 0 264c0 13-11 24-24 24l-400 0c-13 0-24-11-24-24l0-400c0-13 11-24 24-24l264 0 0 136c0 13 11 24 24 24z m129-55l-98-98c-4-5-11-7-17-7l-6 0 0 128 128 0 0-6c0-6-2-13-7-17z"/>
            <glyph glyph-name="camera" unicode="&#57353;"
                   d="M512 368l0-288c0-27-21-48-48-48l-416 0c-26 0-48 21-48 48l0 288c0 26 22 48 48 48l88 0 12 33c7 19 25 31 45 31l126 0c20 0 38-12 45-31l12-33 88 0c27 0 48-22 48-48z m-136-144c0 66-54 120-120 120-66 0-120-54-120-120 0-66 54-120 120-120 66 0 120 54 120 120z m-32 0c0-49-39-88-88-88-48 0-88 39-88 88 0 48 40 88 88 88 49 0 88-40 88-88z"/>
            <glyph glyph-name="file-upload" unicode="&#57354;"
                   d="M288 376l0 136-200 0c-13 0-24-11-24-24l0-464c0-13 11-24 24-24l336 0c13 0 24 11 24 24l0 328-136 0c-13 0-24 11-24 24z m65-216l-65 0 0-80c0-9-7-16-16-16l-32 0c-9 0-16 7-16 16l0 80-65 0c-14 0-22 17-11 27l96 96c7 7 17 7 24 0l96-96c11-10 3-27-11-27z m88 247l-98 98c-4 4-10 7-17 7l-6 0 0-128 128 0 0 6c0 6-2 12-7 17z"/>
            <glyph glyph-name="circle" unicode="&#57355;"
                   d="M256 504c-137 0-248-111-248-248 0-137 111-248 248-248 137 0 248 111 248 248 0 137-111 248-248 248z"/>
            <glyph glyph-name="copy" unicode="&#57356;"
                   d="M352 64l0-40c0-13-11-24-24-24l-272 0c-13 0-24 11-24 24l0 368c0 13 11 24 24 24l72 0 0-296c0-31 25-56 56-56z m0 344l0 104-168 0c-13 0-24-11-24-24l0-368c0-13 11-24 24-24l272 0c13 0 24 11 24 24l0 264-104 0c-13 0-24 11-24 24z m121 31l-66 66c-4 4-11 7-17 7l-6 0 0-96 96 0 0 6c0 6-3 13-7 17z"/>
            <glyph glyph-name="keyboard" unicode="&#57357;"
                   d="M469 85l-426 0c-24 0-43 19-43 43l0 256c0 24 19 43 43 43l426 0c24 0 43-19 43-43l0-256c0-24-19-43-43-43z m-355 239l0 35c0 6-5 11-11 11l-35 0c-6 0-11-5-11-11l0-35c0-6 5-11 11-11l35 0c6 0 11 5 11 11z m85 0l0 35c0 6-5 11-11 11l-35 0c-6 0-11-5-11-11l0-35c0-6 5-11 11-11l35 0c6 0 11 5 11 11z m85 0l0 35c0 6-4 11-10 11l-36 0c-6 0-10-5-10-11l0-35c0-6 4-11 10-11l36 0c6 0 10 5 10 11z m86 0l0 35c0 6-5 11-11 11l-35 0c-6 0-11-5-11-11l0-35c0-6 5-11 11-11l35 0c6 0 11 5 11 11z m85 0l0 35c0 6-5 11-11 11l-35 0c-6 0-11-5-11-11l0-35c0-6 5-11 11-11l35 0c6 0 11 5 11 11z m-299-86l0 36c0 6-4 10-10 10l-36 0c-6 0-10-4-10-10l0-36c0-6 4-10 10-10l36 0c6 0 10 4 10 10z m86 0l0 36c0 6-5 10-11 10l-35 0c-6 0-11-4-11-10l0-36c0-6 5-10 11-10l35 0c6 0 11 4 11 10z m85 0l0 36c0 6-5 10-11 10l-35 0c-6 0-11-4-11-10l0-36c0-6 5-10 11-10l35 0c6 0 11 4 11 10z m85 0l0 36c0 6-4 10-10 10l-36 0c-6 0-10-4-10-10l0-36c0-6 4-10 10-10l36 0c6 0 10 4 10 10z m-298-85l0 35c0 6-5 11-11 11l-35 0c-6 0-11-5-11-11l0-35c0-6 5-11 11-11l35 0c6 0 11 5 11 11z m256 0l0 35c0 6-5 11-11 11l-206 0c-6 0-11-5-11-11l0-35c0-6 5-11 11-11l206 0c6 0 11 5 11 11z m85 0l0 35c0 6-5 11-11 11l-35 0c-6 0-11-5-11-11l0-35c0-6 5-11 11-11l35 0c6 0 11 5 11 11z"/>
            <glyph glyph-name="cog" unicode="&#57358;"
                   d="M487 196l-42 25c4 23 4 47 0 70l42 25c5 2 8 8 6 14-11 35-30 67-55 94-4 4-10 5-15 3l-42-25c-18 15-39 27-61 35l0 49c0 6-4 11-9 12-37 8-75 8-110 0-5-1-9-6-9-12l0-49c-22-8-43-20-61-35l-42 24c-5 3-11 2-15-2-25-27-44-59-55-94-1-6 1-12 6-14l42-25c-4-23-4-47 0-70l-42-25c-5-3-7-8-6-14 11-35 30-68 55-94 4-5 10-6 15-3l42 25c18-16 39-27 61-35l0-49c0-6 4-11 10-12 36-8 74-8 109 0 5 1 9 6 9 12l0 49c22 8 43 20 61 35l43-25c4-3 11-2 14 3 25 26 44 58 55 94 2 6-1 11-6 14z m-231-20c-44 0-80 36-80 80 0 44 36 80 80 80 44 0 80-36 80-80 0-44-36-80-80-80z"/>
            <glyph glyph-name="star-half-alt" unicode="&#57359;"
                   d="M486 337l-140 20-63 127c-5 11-16 17-27 17-11 0-22-6-27-17l-63-127-140-20c-25-4-35-35-17-52l101-99-24-139c-3-20 13-36 31-36 4 0 9 2 14 4l125 66 125-66c5-2 10-4 14-4 18 0 34 16 30 36l-23 139 101 99c18 17 8 48-17 52z m-117-118l-17-17 4-24 19-108-98 51-21 11 0 303 49-98 10-22 24-3 109-16z"/>
            <glyph glyph-name="star-empty" unicode="&#57360;"
                   d="M469 331l-129 19-58 118c-11 21-41 21-52 0l-58-118-129-19c-24-3-33-32-16-48l94-92-22-129c-4-24 20-41 41-30l116 61 116-61c21-11 45 6 41 30l-22 129 94 92c17 16 8 45-16 48z m-124-125l21-123-110 58-110-58 21 123-90 87 124 18 55 112 55-112 124-18z"/>
            <glyph glyph-name="eye" unicode="&#57361;"
                   d="M509 269c-48 94-144 158-253 158-109 0-205-64-253-158-4-8-4-18 0-26 48-94 144-158 253-158 109 0 205 64 253 158 4 8 4 18 0 26z m-253-141c-71 0-128 57-128 128 0 71 57 128 128 128 71 0 128-57 128-128 0-71-57-128-128-128z m0 213c-8 0-15-1-22-3 12-17 10-40-5-55-15-15-38-17-55-5-10-35 4-72 35-93 30-20 70-19 99 4 29 22 41 60 29 95-12 34-44 57-81 57z"/>
            <glyph glyph-name="google-places" unicode="&#57363;"
                   d="M256 512c-106 0-192-86-192-192 0-77 27-99 172-310 10-14 30-14 40 0 145 211 172 233 172 310 0 106-86 192-192 192z m3-286c-56 0-100 45-100 100 0 55 44 100 100 100 27 0 49-10 67-26l-28-26c-7 7-20 15-39 15-34 0-62-28-62-63 0-35 28-63 62-63 39 0 54 28 56 43l-56 0 0 34 94 0c1-5 2-10 2-16 0-57-39-98-96-98z"/>
            <glyph glyph-name="review" unicode="&#57364;"
                   d="M448 512l-384 0c-35 0-64-29-64-64l0-288c0-35 29-64 64-64l96 0 0-84c0-10 11-16 19-10l125 94 144 0c35 0 64 29 64 64l0 288c0 35-29 64-64 64z m-63-185c-1-3-2-6-5-9l-50-49 11-70c2-8-4-16-12-17-3-1-7 0-10 1l-62 33-63-33c-11-6-24 4-22 16l12 70-51 49c-6 6-6 16 0 22 3 2 6 4 9 4l70 11 31 63c4 8 13 11 21 7 3-1 5-4 7-7l31-63 70-11c8-1 14-9 13-17z"/>
            <glyph glyph-name="google-account" unicode="&#57362;"
                   d="M293 358c0-56-46-102-103-102-56 0-102 46-102 102 0 57 46 103 102 103 57 0 103-46 103-103z m65-296c-7-7-16-11-27-11l-281 0c-22 0-39 17-39 39l0 33c0 59 48 107 108 107l13 0c18-8 38-12 58-12 21 0 41 4 59 12l13 0c16 0 31-3 44-9-8-16-13-35-13-55 0-46 27-85 65-104z m52 24c-45 0-80 36-80 80 0 45 35 80 80 80 21 0 39-7 53-21l-21-20c-6 5-17 12-32 12-28 0-50-23-50-51 0-28 22-50 50-50 31 0 43 23 45 34l-45 0 0 28 75 0c1-4 1-8 1-14 0-45-30-78-76-78z"/>
            <glyph glyph-name="building-info" unicode="&#57365;"
                   d="M306 62c-11 12-20 25-27 40-6 15-9 32-9 48 0 17 3 34 9 49 7 15 16 28 27 40 8 8 17 14 27 20l0 183c0 10-9 19-19 19l-269 0c-11 0-19-9-19-19l0-365-16 0c-6 0-10-5-10-10l0-16 319 0c-5 4-9 7-13 11z m-204 338c0 5 5 10 10 10l32 0c5 0 10-5 10-10l0-32c0-5-5-10-10-10l-32 0c-5 0-10 5-10 10z m0-77c0 5 5 10 10 10l32 0c5 0 10-5 10-10l0-32c0-5-5-9-10-9l-32 0c-5 0-10 4-10 9z m42-118l-32 0c-5 0-10 4-10 9l0 32c0 6 5 10 10 10l32 0c5 0 10-4 10-10l0-32c0-5-5-9-10-9z m61-128l-51 0 0 67c0 5 4 10 9 10l32 0c5 0 10-5 10-10z m51 137c0-5-4-9-10-9l-32 0c-5 0-9 4-9 9l0 32c0 6 4 10 9 10l32 0c6 0 10-4 10-10z m0 77c0-5-4-9-10-9l-32 0c-5 0-9 4-9 9l0 32c0 5 4 10 9 10l32 0c6 0 10-5 10-10z m0 77c0-5-4-10-10-10l-32 0c-5 0-9 5-9 10l0 32c0 5 4 10 9 10l32 0c6 0 10-5 10-10z m138-118c-54 0-99-45-99-100 0-54 45-99 99-99 55 0 100 45 100 99 0 55-45 100-100 100z m0-44c10 0 17-8 17-17 0-9-7-17-17-17-9 0-16 8-16 17 0 9 7 17 16 17z m23-102c0-3-2-5-5-5l-35 0c-3 0-5 2-5 5l0 10c0 2 2 4 5 4l5 0 0 26-5 0c-3 0-5 2-5 5l0 9c0 3 2 5 5 5l25 0c3 0 5-2 5-5l0-40 5 0c3 0 5-2 5-4z"/>
        </font>
</defs>
</svg>
